<svg width="137" height="113" viewBox="0 0 137 113" fill="none" xmlns="http://www.w3.org/2000/svg">
<path id="&#34;" opacity="0.1" d="M0.995157 95.8668C13.1582 94.7611 22.6675 90.8911 29.523 84.2567C36.3785 77.4011 39.9169 68.9976 40.138 59.046C38.1477 59.9306 36.1574 60.7046 34.1671 61.368C32.3979 61.8103 30.5182 62.0315 28.5278 62.0315C19.682 62.0315 12.7159 59.046 7.62954 53.0751C2.54318 47.1041 0 40.0274 0 31.845C0 22.3358 2.76433 14.7062 8.29298 8.95642C13.8216 2.98547 21.23 0 30.5182 0C39.5851 0 47.2147 3.3172 53.4068 9.95158C59.5989 16.586 62.6949 26.427 62.6949 39.4746C62.6949 56.0605 60.0412 69.661 54.7337 80.276C49.6473 90.6699 42.46 98.41 33.1719 103.496C24.1049 108.583 13.3793 111.458 0.995157 112.121V95.8668ZM75.3002 95.8668C87.4633 94.7611 96.9726 90.8911 103.828 84.2567C110.684 77.4011 114.222 68.9976 114.443 59.046C112.453 59.9306 110.462 60.7046 108.472 61.368C106.482 61.8103 104.492 62.0315 102.501 62.0315C93.6554 62.0315 86.6893 59.046 81.6029 53.0751C76.7377 47.1041 74.3051 40.0274 74.3051 31.845C74.3051 22.3358 77.0694 14.7062 82.5981 8.95642C88.1267 2.98547 95.5351 0 104.823 0C113.89 0 121.52 3.3172 127.712 9.95158C133.904 16.586 137 26.427 137 39.4746C137 56.0605 134.346 69.661 129.039 80.276C123.952 90.6699 116.765 98.41 107.477 103.496C98.41 108.583 87.6844 111.458 75.3002 112.121V95.8668Z" fill="#182129"/>
</svg>
