<svg width="110" height="26" viewBox="0 0 110 26" fill="none" xmlns="http://www.w3.org/2000/svg">
<g id="Group 289483">
<path id="Subtract" fill-rule="evenodd" clip-rule="evenodd" d="M5.99328 25.489C7.11563 25.7247 8.26044 25.8426 9.42769 25.8426C11.3918 25.8426 13.0697 25.5507 14.4615 24.9671C15.8644 24.3835 16.9306 23.5361 17.6602 22.425C18.3897 21.3138 18.7545 19.9782 18.7545 18.4182V18.3845C18.7545 16.7234 18.4065 15.4159 17.7107 14.4619C17.0148 13.4966 16.145 12.8008 15.1012 12.3743C14.0686 11.9366 12.7779 11.5662 11.2291 11.2631L11.0271 11.2295C10.9709 11.207 10.9092 11.1902 10.8419 11.179C10.797 11.1677 10.7521 11.1621 10.7072 11.1621L10.5725 11.1285C9.49503 10.9152 8.65888 10.7132 8.06403 10.5224C7.46918 10.3316 6.96973 10.0342 6.56568 9.63011C6.16163 9.21484 5.95961 8.65366 5.95961 7.94657V7.92974C5.95961 7.08797 6.34682 6.437 7.12125 5.97684C7.89567 5.50545 8.98997 5.26975 10.4041 5.26975C11.3469 5.26975 12.329 5.44933 13.3503 5.80848C14.3829 6.16764 15.3706 6.6727 16.3134 7.32366L18.2663 3.41786C17.4806 2.87913 16.6501 2.41896 15.7746 2.03736C14.8992 1.65576 14.0013 1.36395 13.081 1.16192C12.1719 0.959899 11.2796 0.858887 10.4041 0.858887C8.49613 0.858887 6.86872 1.15631 5.52189 1.75116C4.17506 2.33479 3.1481 3.18778 2.44102 4.31014C1.73393 5.43249 1.38039 6.78493 1.38039 8.36746V8.38429C1.38039 10.1688 1.75638 11.5493 2.50836 12.5258C3.26034 13.491 4.17506 14.17 5.25252 14.5629C6.32998 14.9445 7.68804 15.2643 9.32668 15.5225L9.69706 15.573C9.73073 15.5842 9.75879 15.5898 9.78123 15.5898C9.8149 15.5898 9.84857 15.5954 9.88225 15.6067C10.8138 15.7526 11.577 15.9153 12.1719 16.0949C12.7667 16.2745 13.2493 16.5551 13.6197 16.9367C13.9901 17.3183 14.1753 17.8345 14.1753 18.4855V18.5023C14.1753 19.4339 13.76 20.1578 12.9294 20.6741C12.0989 21.1792 10.9316 21.4317 9.42769 21.4317C8.12576 21.4317 6.85749 21.2241 5.6229 20.8088C4.38831 20.3823 3.29962 19.7818 2.35684 19.0074L0.21875 22.8122C0.993176 23.4519 1.86861 24.0019 2.84507 24.4621C3.83274 24.911 4.88214 25.2533 5.99328 25.489ZM26.222 21.9726V25.59H21.6091V6.08441L24.434 4.45346C24.7974 4.24363 24.8085 3.72303 24.4543 3.49791L21.6091 1.68931V1.11142H26.222V15.9215L31.9123 8.11493H36.7946L31.8666 14.5742L37.6532 25.59H32.3164L28.8588 18.5165L26.222 21.9726ZM41.7704 24.9503C42.904 25.5451 44.2677 25.8426 45.8614 25.8426C47.4552 25.8426 48.8132 25.5451 49.9356 24.9503C51.0692 24.3554 51.9278 23.4968 52.5114 22.3745C53.1062 21.2409 53.4037 19.8772 53.4037 18.2835V15.3878C53.4037 13.8053 53.1062 12.4528 52.5114 11.3305C51.9278 10.1969 51.0692 9.3383 49.9356 8.75467C48.8132 8.15982 47.4552 7.8624 45.8614 7.8624C44.2677 7.8624 42.904 8.15982 41.7704 8.75467C40.6481 9.3383 39.7895 10.1969 39.1946 11.3305C38.611 12.4528 38.3192 13.8053 38.3192 15.3878V18.233C38.3192 19.8379 38.611 21.2128 39.1946 22.3576C39.7895 23.4912 40.6481 24.3554 41.7704 24.9503ZM48.0164 20.5899C47.5001 21.1287 46.7761 21.398 45.8446 21.398C44.913 21.398 44.1947 21.1287 43.6897 20.5899C43.1846 20.04 42.9321 19.2712 42.9321 18.2835V15.3878C42.9321 14.4114 43.1846 13.6538 43.6897 13.115C44.206 12.5763 44.9243 12.3069 45.8446 12.3069C46.7761 12.3069 47.5001 12.5763 48.0164 13.115C48.5326 13.6538 48.7908 14.4114 48.7908 15.3878V18.2835C48.7908 19.2712 48.5326 20.04 48.0164 20.5899ZM61.5277 8.11493H56.5781V25.59H61.5277V15.7077C61.5277 14.6414 61.7803 13.8109 62.2853 13.216C62.8016 12.61 63.5255 12.3069 64.4571 12.3069C64.8836 12.3069 65.2596 12.363 65.5851 12.4753C65.9105 12.5875 66.1855 12.7559 66.41 12.9803L69.1037 9.22606C68.6659 8.77712 68.1497 8.44041 67.5548 8.21594C66.9712 7.98024 66.3146 7.8624 65.5851 7.8624C64.6647 7.8624 63.8174 8.15421 63.0429 8.73783C62.4545 9.17919 61.9494 9.76066 61.5277 10.4823V8.11493ZM75.2243 20.8088C74.9886 20.5731 74.8708 20.242 74.8708 19.8155V1.11142H70.2579V20.9603C70.2579 22.4306 70.6451 23.5698 71.4195 24.3779C72.194 25.186 73.2826 25.59 74.6856 25.59H77.0425V21.1455H76.2681C75.8192 21.1455 75.4712 21.0333 75.2243 20.8088ZM82.3888 24.9335C83.5897 25.5395 85.0319 25.8426 86.7155 25.8426C87.8715 25.8426 89.0163 25.6181 90.1499 25.1691C91.2835 24.709 92.3048 24.0636 93.2139 23.2331L90.2004 20.5563C89.7065 20.9603 89.1566 21.2746 88.5505 21.499C87.9444 21.7123 87.3328 21.8189 86.7155 21.8189C85.5145 21.8189 84.5774 21.4934 83.904 20.8425C83.3691 20.3167 83.0503 19.6152 82.9474 18.738H93.6685V17.5932C93.6685 15.5393 93.3823 13.7884 92.8099 12.3406C92.2487 10.8815 91.4238 9.7704 90.3351 9.0072C89.2464 8.244 87.9388 7.8624 86.4124 7.8624C84.785 7.8624 83.3933 8.18227 82.2373 8.82201C81.0924 9.46176 80.217 10.3933 79.6109 11.6167C79.0161 12.8401 78.7187 14.316 78.7187 16.0444V18.0141C78.7187 19.664 79.0329 21.0782 79.6614 22.2566C80.29 23.4239 81.1991 24.3162 82.3888 24.9335ZM82.9146 15.6235C82.9519 14.5249 83.2536 13.6663 83.8198 13.0477C84.4371 12.3855 85.3013 12.0544 86.4124 12.0544C87.2654 12.0544 87.9444 12.3294 88.4495 12.8793C88.9658 13.4293 89.2857 14.2093 89.4091 15.2194L89.4596 15.6235H82.9146ZM101.624 8.11493H96.6746V25.59H101.624V15.7077C101.624 14.6414 101.877 13.8109 102.382 13.216C102.898 12.61 103.622 12.3069 104.554 12.3069C104.98 12.3069 105.356 12.363 105.682 12.4753C106.007 12.5875 106.282 12.7559 106.506 12.9803L109.2 9.22606C108.762 8.77712 108.246 8.44041 107.651 8.21594C107.068 7.98024 106.411 7.8624 105.682 7.8624C104.761 7.8624 103.914 8.15421 103.139 8.73783C102.551 9.17919 102.046 9.76067 101.624 10.4823V8.11493Z" fill="#0085FF"/>
</g>
</svg>
